<svg width="39" height="39" viewBox="0 0 39 39" fill="none" xmlns="http://www.w3.org/2000/svg">
<path d="M8 0C3.58172 0 0 3.58172 0 8V31C0 35.4183 3.58172 39 8 39H31C35.4183 39 39 35.4183 39 31V8C39 3.58172 35.4183 0 31 0H8ZM11.4136 6.49959H14.0668C16.0534 6.49959 16.7334 6.54347 16.7773 6.68362C16.809 6.79209 16.8285 8.90541 16.8285 11.3941L16.8163 15.9132L17.5841 15.2271C18.6566 14.2813 19.5585 13.951 21.266 13.8877C22.3897 13.856 22.8467 13.8998 23.634 14.1802C25.361 14.7578 26.5797 15.9449 27.2147 17.6962C27.4621 18.3824 27.4938 19.099 27.5389 24.6602L27.5901 30.8746H22.163V25.8034C22.163 20.8077 22.1508 20.7443 21.8144 20.135C21.3379 19.3294 20.8236 18.9601 20.0119 18.8723C18.6286 18.72 17.6694 19.1892 17.1234 20.3202C16.8626 20.8406 16.8309 21.3866 16.8187 25.7729C16.7992 28.4517 16.7676 30.6991 16.7676 30.7564C16.7554 30.8332 15.5488 30.877 14.0827 30.877H11.4233V18.6895L11.4136 6.49959Z" fill="white"/>
</svg>
