<svg width="44" height="60" viewBox="0 0 44 60" fill="none" xmlns="http://www.w3.org/2000/svg">
  <g transform="scale(-1, 1) translate(-44, 0)">
    <path fill-rule="evenodd" clip-rule="evenodd" d="M38.0974 53.8917V59.2049H27.3585V53.8917H21.7333V48.5784H16.3639V43.0121H10.7388V37.6989H5.36934V32.1326H-0.000103515V26.8193H5.36934V21.5061H10.7388V16.1928H16.3639V10.6265H21.7333V5.31326H27.3585V0H38.0974V5.31326H43.4668V10.6265H38.0974V16.1928H32.7279V21.5061H27.3585V26.8193H21.7333V32.1326H27.3585V37.6989H32.7279V43.0121H38.0974V48.5784H43.4668V53.8917H38.0974ZM38.0974 53.8917H27.3585V48.5784H21.7333V43.0121H16.3639V37.6989H10.7388V32.1326H5.36934V26.8193H10.7388V21.5061H16.3639V16.1928H21.7333V10.6265H27.3585V5.31326H38.0974V10.6265H32.7279V16.1928H27.3585V21.5061H21.7333V26.8193H16.3639V32.1326H21.7333V37.6989H27.3585V43.0121H32.7279V48.5784H38.0974V53.8917Z" fill="#DA01DC"/>
  </g>
</svg>
