<svg width="29" height="29" viewBox="0 0 29 29" fill="none" xmlns="http://www.w3.org/2000/svg">
<path d="M14.4746 0C6.84688 0 0.59196 5.8725 0 13.3364L7.78627 16.5481C8.46869 16.0841 9.27515 15.8357 10.1009 15.8352C10.1767 15.836 10.2526 15.8384 10.3284 15.8425L13.7918 10.8375V10.7663C13.7937 9.31703 14.3714 7.92772 15.398 6.90297C16.4246 5.87822 17.8165 5.30167 19.2684 5.29975C22.2875 5.29975 24.7449 7.75388 24.7449 10.7699C24.7449 13.7859 22.2875 16.2376 19.2684 16.2376H19.1413L14.207 19.755L14.2119 19.9472C14.2128 20.4857 14.1074 21.0191 13.9016 21.517C13.6958 22.0148 13.3937 22.4672 13.0125 22.8483C12.6313 23.2295 12.1786 23.5319 11.6802 23.7382C11.1819 23.9445 10.6476 24.0507 10.1081 24.0507C9.1589 24.0479 8.23964 23.7187 7.50517 23.1185C6.77069 22.5183 6.26588 21.6838 6.07576 20.7555L0.501169 18.4513C2.22742 24.5376 7.82501 29 14.4746 29C22.4969 29 29 22.5076 29 14.5C29 6.49238 22.4957 0 14.4746 0ZM9.10093 22.0037L7.31779 21.2667C7.63495 21.9228 8.18213 22.4738 8.90846 22.7771C9.47182 23.0101 10.0917 23.0714 10.6899 22.9533C11.2881 22.8351 11.8379 22.5428 12.2699 22.1133C12.702 21.6837 12.9969 21.1361 13.1176 20.5394C13.2383 19.9428 13.1793 19.3238 12.9481 18.7606C12.6427 18.0204 12.0604 17.428 11.3248 17.1093C10.5891 16.7905 9.75799 16.7704 9.00772 17.0532L10.8514 17.8145C11.4079 18.046 11.8496 18.4887 12.0791 19.0453C12.3086 19.6018 12.3072 20.2266 12.0753 20.7821C11.8433 21.3377 11.3997 21.7785 10.8422 22.0076C10.2846 22.2367 9.65749 22.2353 9.10093 22.0037ZM22.9194 10.7626C22.9178 9.7969 22.5327 8.87118 21.8486 8.18831C21.1645 7.50544 20.2371 7.1211 19.2696 7.1195C18.5477 7.1195 17.8421 7.33317 17.2418 7.73348C16.6416 8.13379 16.1738 8.70277 15.8976 9.36846C15.6213 10.0342 15.5491 10.7667 15.6899 11.4734C15.8307 12.1801 16.1783 12.8292 16.6888 13.3387C17.1992 13.8482 17.8495 14.1952 18.5575 14.3357C19.2655 14.4763 19.9994 14.4042 20.6663 14.1284C21.3332 13.8527 21.9032 13.3857 22.3043 12.7866C22.7053 12.1875 22.9194 11.4832 22.9194 10.7626ZM16.5361 10.7566C16.5361 10.0306 16.8251 9.33427 17.3394 8.82089C17.8537 8.30752 18.5513 8.0191 19.2787 8.0191C20.006 8.0191 20.7036 8.30752 21.2179 8.82089C21.7322 9.33427 22.0212 10.0306 22.0212 10.7566C22.0205 11.4825 21.7313 12.1784 21.2169 12.6916C20.7026 13.2047 20.0053 13.4931 19.278 13.4935C18.9179 13.4936 18.5613 13.4229 18.2286 13.2854C17.8958 13.148 17.5935 12.9464 17.3389 12.6922C17.0842 12.438 16.8823 12.1363 16.7445 11.8041C16.6068 11.472 16.536 11.116 16.5361 10.7566Z" fill="white"/>
</svg>
