<svg width="57" height="52" viewBox="0 0 57 52" fill="none" xmlns="http://www.w3.org/2000/svg">
<path d="M2.4541 24.5411H5.31724L10.8901 24.4388V22.1381H21.4735V20.5531V19.0704H19.3261V17.7922H12.6796V16.4629H14.2134V15.0314H15.3382V9.7141H14.0089V8.28253H11.4525V9.7141H10.5322V8.28253H8.7939V9.40734H7.51572V11.0434H6.33978V12.4239H4.95934V15.0314H3.68116V19.0704H2.4541V24.5411Z" fill="black"/>
<path d="M33.1817 51.5368H15.4405V50.4631H11.657V49.1338H8.74279V47.7022H6.18642V46.424H5.06161V45.0947H3.88568V43.5609H2.6075V40.7489H1.27819V38.1925H0V31.188H1.17593V28.4272H2.45412V25.7174H3.83456V24.3881H5.11274V23.0588H7.4646V21.7295H10.1232H16.3608H22.5983V20.2468H24.1833V23.1099H25.4614V24.4903H26.6885V25.8197H29.3471V27.149H33.4884V28.6828H38.5501V29.9099H50.2582V38.2436H49.0312V40.8511H47.6507V43.612H46.3726V44.9924H45.0944V46.3218H42.5891V47.7533H41.1576V49.236H39.726V50.5653H33.1817V51.5368Z" fill="white"/>
<path d="M39.6746 47.5999H34.7664H34.6641V46.2705H33.2326V44.9252H31.801V39.4195H33.1814V38.039H35.7889V36.812H37.1182L37.0671 35.4315H35.7889V34.1022H34.5619V32.6706H33.2326V31.4436H30.4206V30.012H29.0912V28.5804H26.4326V27.2511H23.9274V26.1263V25.8196H23.2116H21.2687V24.5414H16.565V23.2632H15.1335V21.8827H12.7305V20.4512H17.6898H22.7003H23.9274V23.3143H25.2567V24.797H26.4837V25.9729H29.1935V27.4045H33.2326V28.8361H38.243V29.9098H49.0821V38.0901H47.5482V40.9022H46.1678V42.2826H45.0941V43.6119H43.7648V45.0435H42.0776V46.3728H39.6746V47.5999Z" fill="black"/>
<path d="M21.5126 47.651H18.008V46.3117H13.3181V45.1268H10.4319V43.5814H8.93734V42.2421H7.54581V39.4604H6.3089V36.6271H5.17506V35.3908H3.78353V28.488H5.12352V25.8094H6.10274V24.4185H7.54581V23.0791H10.1227V20.3489H13.0604V21.7913H15.2765V26.0669V28.488V29.8274H20.1726H20.2757V29.6213V28.5396H24.1411V29.8789H25.4811V31.1667H26.821V32.6091H28.161V35.2615H29.4495V40.7997H28.161V43.5814H26.7695V45.0753H25.4811V46.3632H21.5126V47.651Z" fill="black"/>
<path d="M47.4461 30.0632H38.2432H38.192V28.8361H33.2327V27.4045H29.1425V25.973H26.3816V24.7459H25.2568V23.3143H23.9275V20.4512H22.0869V15.1339H23.5185V13.7024H25.3079V12.5264H26.3816V11.2483V9.81669H27.8643V8.38512H29.2959V7.0558H30.4718L30.4954 5.82875H35.7891V4.29492H38.4477V5.72649H43.5093V7.15806H46.1168V8.48737H47.4461V9.81669H48.7754V11.3505H47.3439V12.6287H48.8777V15.0317H50.0536V17.7414H51.434V26.1263H50.1559V27.3534H48.7243V28.8872H47.4461V30.0632Z" fill="white"/>
<path d="M55.1155 17.7923H50.0027V15.0825H48.8268V12.6795H47.293V11.2991H48.7245V9.81641H55.0643V11.248H56.4448V16.4118H55.1155V17.7923Z" fill="black"/>
<path d="M31.9033 2.96539V5.82853H35.789V4.29471H39.2657V1.53382H38.6521V0H34.2552V1.53382H33.2326V2.96539H31.9033Z" fill="black"/>
<path d="M38.3455 23.2118V20.5532H37.0162V19.1216H35.6868L35.738 15.0825H37.0162V13.7532H40.8507V15.1848H42.18V17.8434H43.5605V21.7802H42.18V23.2118H38.3455Z" fill="black"/>
<path d="M25.2572 17.6901H27.9158V16.4119H29.194V15.0826H30.421V11.248H27.9158V12.5774H26.5865V13.9439H25.2572V17.6901Z" fill="black"/>
<path d="M27.9157 17.8945H31.6991V20.5532H30.4209V23.1607H30.5232H34.3805V21.8825H35.6871V23.1607H34.3805V24.6434H30.5232V23.1607H30.4209H27.9157V21.8825H29.245V19.2578H27.9157V17.8945Z" fill="black"/>
<rect x="26.5863" y="20.5534" width="1.22706" height="1.22706" fill="black"/>
<path d="M14.0599 11.4525H12.7306V9.91866H14.0599V11.4525Z" fill="#ED9068"/>
<path d="M11.5547 11.248H10.4299V9.81641H11.5547V11.248Z" fill="#ED9068"/>
<path d="M12.7306 11.7592H9.96973V12.9863H11.5035V12.475H12.7306V11.7592Z" fill="#ED9068"/>
<path d="M14.0599 26.0748H12.8328V23.2117H11.5546V24.6432H10.0719V23.2117H11.4524V22.138H12.8328V23.2117H14.0599V26.0748Z" fill="#ED9068"/>
</svg>
