<svg width="38" height="38" viewBox="0 0 38 38" fill="none" xmlns="http://www.w3.org/2000/svg">
<path d="M24.6426 0H13.0781C2.51082 0 0 2.51271 0 13.0574V24.6238C0 35.1873 2.49385 37.7 13.0574 37.7H24.6238C35.1873 37.7 37.7 35.2061 37.7 24.6426V13.0781C37.7 2.51082 35.2061 0 24.6426 0ZM30.4352 26.899H27.685C26.6445 26.899 26.3316 26.0564 24.4654 24.1902C22.8368 22.62 22.1488 22.424 21.7359 22.424C21.1667 22.424 21.0102 22.5804 21.0102 23.3665V25.8396C21.0102 26.5088 20.7934 26.9008 19.046 26.9008C17.3505 26.7857 15.7064 26.2699 14.2489 25.396C12.7914 24.5221 11.5619 23.3149 10.6616 21.8735C8.52463 19.2167 7.03864 16.0969 6.32229 12.7633C6.32229 12.3505 6.47874 11.9773 7.26479 11.9773H10.015C10.7219 11.9773 10.9764 12.2921 11.2516 13.0178C12.5861 16.9461 14.8632 20.3618 15.7869 20.3618C16.1413 20.3618 16.2958 20.2053 16.2958 19.3212V15.276C16.179 13.4306 15.1988 13.2742 15.1988 12.6069C15.2113 12.4309 15.292 12.2667 15.4236 12.1492C15.5552 12.0316 15.7274 11.97 15.9037 11.9773H20.2242C20.8142 11.9773 21.0102 12.2713 21.0102 12.9782V18.4372C21.0102 19.0272 21.2647 19.2232 21.4419 19.2232C21.7963 19.2232 22.0696 19.0272 22.718 18.3787C24.1108 16.6803 25.2487 14.788 26.0959 12.7615C26.1831 12.5184 26.3471 12.3103 26.5631 12.1688C26.779 12.0273 27.0353 11.9601 27.2929 11.9773H30.0431C30.8669 11.9773 31.0422 12.3901 30.8669 12.9782C29.8669 15.2184 28.6296 17.345 27.176 19.3212C26.8801 19.7736 26.7613 20.0093 27.176 20.539C27.4494 20.9518 28.4126 21.7567 29.061 22.522C30.003 23.4622 30.7855 24.5497 31.3777 25.7416C31.6133 26.5069 31.2194 26.899 30.4352 26.899Z" fill="white"/>
</svg>
