<svg width="30" height="29" viewBox="0 0 30 29" fill="none" xmlns="http://www.w3.org/2000/svg">
<path d="M21.1543 0C23.5003 0.000115229 25.7503 0.901309 27.4092 2.50488C29.068 4.10854 30 6.28392 30 8.55176V20.4482C30 22.7161 29.068 24.8915 27.4092 26.4951C25.7503 28.0987 23.5003 28.9999 21.1543 29H8.8457C6.49972 28.9999 4.24969 28.0987 2.59082 26.4951C0.93198 24.8915 0 22.7161 0 20.4482V8.55176C0 6.28392 0.93198 4.10854 2.59082 2.50488C4.24969 0.901309 6.49972 0.000115229 8.8457 0H21.1543ZM13.4531 9C13.0614 9.00248 12.6759 9.10195 12.333 9.29004C11.9901 9.47814 11.6999 9.74919 11.4893 10.0771C11.2788 10.405 11.1541 10.7801 11.127 11.168C10.9571 13.3861 10.9571 15.6139 11.127 17.832C11.1541 18.2199 11.2788 18.595 11.4893 18.9229C11.6999 19.2508 11.9901 19.5219 12.333 19.71C12.6759 19.8981 13.0614 19.9975 13.4531 20C13.8447 20.0024 14.231 19.9073 14.5762 19.7236C15.8517 19.0605 17.4147 18.1895 18.6641 17.3066C19.2858 16.8672 19.8493 16.4132 20.2617 15.9678C20.6539 15.5443 21 15.0392 21 14.5C21 13.9628 20.6539 13.4557 20.2617 13.0322C19.8513 12.5868 19.2878 12.1328 18.6641 11.6934C17.4127 10.8105 15.8517 9.93955 14.5762 9.27637C14.231 9.0927 13.8447 8.99758 13.4531 9Z" fill="#FFFAFA"/>
</svg>
