<svg width="353" height="173" viewBox="0 0 353 173" fill="none" xmlns="http://www.w3.org/2000/svg">
<path d="M305.583 172.25H46.9167V156.25H30.9167V140.25H16.25V125.583H0.25V46.9167H16.25V30.9167H30.9167V16.25H46.9167V0.25H305.583V16.25H321.583V30.9167H336.25V46.9167H352.25V125.583H336.25V140.25H321.583V156.25H305.583V172.25Z" fill="#3D0B5A" stroke="#DA81F8" stroke-width="0.5"/>
<path d="M46.9167 140.25V156.25H305.583V140.25H321.583V125.583H336.25V46.9167H321.583V30.9167H305.583V16.25H46.9167V30.9167H30.9167V46.9167H16.25V125.583H30.9167V140.25H46.9167Z" fill="#D001D3"/>
<path d="M46.9167 156.25V140.152H30.9167V125.396H16.25V109.299H30.9167V125.396H46.9167V140.152H305.583V125.396H321.583V46.25H336.25V125.396H321.583V140.152H305.583V156.25H46.9167Z" fill="#740276"/>
<path d="M30.9487 109.25H16.25V46.8071H30.9487V30.8643H46.9836V16.25H306.215V30.8643H322.25V46.8071H306.215V30.8643H46.9836V46.8071H30.9487V109.25Z" fill="#DA81F8"/>
</svg>
