<svg width="44" height="60" viewBox="0 0 44 60" fill="none" xmlns="http://www.w3.org/2000/svg">
<path fill-rule="evenodd" clip-rule="evenodd" d="M5.36944 54.5738V59.9544H16.1083V54.5738H21.7335V49.1933H27.1029V43.5566H32.728V38.1761H38.0975V32.5393H43.4669V27.1588H38.0975V21.7783H32.728V16.3978H27.1029V10.761H21.7335V5.38052H16.1083V0H5.36944V5.38052H0V10.761H5.36944V16.3978H10.7389V21.7783H16.1083V27.1588H21.7335V32.5393H16.1083V38.1761H10.7389V43.5566H5.36944V49.1933H0V54.5738H5.36944ZM5.36944 54.5738H16.1083V49.1933H21.7335V43.5566H27.1029V38.1761H32.728V32.5393H38.0975V27.1588H32.728V21.7783H27.1029V16.3978H21.7335V10.761H16.1083V5.38052H5.36944V10.761H10.7389V16.3978H16.1083V21.7783H21.7335V27.1588H27.1029V32.5393H21.7335V38.1761H16.1083V43.5566H10.7389V49.1933H5.36944V54.5738Z" fill="#DA01DC"/>
<path d="M27.1029 27.1588V32.5393H21.7335V38.1761H16.1083V43.5566H10.7389V49.1933H5.36944V54.5738H16.1083V49.1933H21.7335V43.5566H27.1029V38.1761H32.728V32.5393H38.0975V27.1588H32.728V21.7783H27.1029V16.3978H21.7335V10.761H16.1083V5.38052H5.36944V10.761H10.7389V16.3978H16.1083V21.7783H21.7335V27.1588H27.1029Z" fill="#DA01DC"/>
</svg>
