<svg width="38" height="38" viewBox="0 0 38 38" fill="none" xmlns="http://www.w3.org/2000/svg">
<path d="M16.495 20.81C16.495 19.7356 15.6091 18.8496 14.5346 18.8496C13.4602 18.8496 12.5742 19.7356 12.5742 20.81C12.5742 21.3299 12.7808 21.8286 13.1484 22.1962C13.5161 22.5639 14.0147 22.7704 14.5346 22.7704C15.0545 22.7704 15.5532 22.5639 15.9208 22.1962C16.2885 21.8286 16.495 21.3299 16.495 20.81ZM22.7909 25.2775C21.9427 26.1257 20.1331 26.4273 18.8513 26.4273C17.5695 26.4273 15.7599 26.1257 14.9116 25.2775C14.8658 25.2284 14.8103 25.1892 14.7487 25.1625C14.6871 25.1357 14.6206 25.1219 14.5535 25.1219C14.4863 25.1219 14.4198 25.1357 14.3582 25.1625C14.2966 25.1892 14.2412 25.2284 14.1953 25.2775C14.1462 25.3233 14.1071 25.3788 14.0803 25.4404C14.0536 25.502 14.0398 25.5684 14.0398 25.6356C14.0398 25.7028 14.0536 25.7692 14.0803 25.8308C14.1071 25.8925 14.1462 25.9479 14.1953 25.9938C15.5337 27.3321 18.0973 27.4452 18.8513 27.4452C19.6053 27.4452 22.1689 27.3321 23.5072 25.9938C23.5563 25.9479 23.5954 25.8925 23.6222 25.8308C23.649 25.7692 23.6628 25.7028 23.6628 25.6356C23.6628 25.5684 23.649 25.502 23.6222 25.4404C23.5954 25.3788 23.5563 25.3233 23.5072 25.2775C23.3187 25.089 22.9983 25.089 22.7909 25.2775ZM23.1679 18.8496C22.0935 18.8496 21.2075 19.7356 21.2075 20.81C21.2075 21.8845 22.0935 22.7704 23.1679 22.7704C24.2424 22.7704 25.1283 21.8845 25.1283 20.81C25.1283 19.7356 24.2612 18.8496 23.1679 18.8496Z" fill="white"/>
<path d="M18.85 0C8.4448 0 0 8.4448 0 18.85C0 29.2552 8.4448 37.7 18.85 37.7C29.2552 37.7 37.7 29.2552 37.7 18.85C37.7 8.4448 29.2552 0 18.85 0ZM29.783 21.357C29.8207 21.621 29.8396 21.9037 29.8396 22.1865C29.8396 26.4089 24.9197 29.8396 18.85 29.8396C12.7803 29.8396 7.86045 26.4089 7.86045 22.1865C7.86045 21.9037 7.8793 21.621 7.917 21.357C6.95565 20.9235 6.2959 19.9622 6.2959 18.85C6.29311 18.3095 6.4501 17.7802 6.74716 17.3286C7.04421 16.877 7.46809 16.5232 7.96555 16.3117C8.46301 16.1003 9.01186 16.0405 9.54317 16.14C10.0745 16.2394 10.5646 16.4937 10.9518 16.8708C12.8557 15.4947 15.4947 14.6276 18.4165 14.5333L19.8113 7.9547C19.8302 7.82275 19.9056 7.70965 20.0187 7.6531C20.1318 7.5777 20.2638 7.55885 20.3957 7.5777L24.9574 8.5579C25.1121 8.2442 25.3479 7.9776 25.6404 7.78576C25.9329 7.59392 26.2714 7.48383 26.6207 7.4669C26.9701 7.44998 27.3176 7.52683 27.6273 7.6895C27.937 7.85216 28.1974 8.09472 28.3818 8.39199C28.5661 8.68927 28.6675 9.03045 28.6755 9.38014C28.6835 9.72983 28.5978 10.0753 28.4273 10.3807C28.2568 10.6861 28.0077 10.9403 27.7058 11.117C27.4039 11.2936 27.0602 11.3863 26.7104 11.3854C25.6549 11.3854 24.8066 10.556 24.75 9.51925L20.6596 8.65215L19.4155 14.5333C22.2996 14.6276 24.882 15.5135 26.767 16.8708C27.056 16.5948 27.4017 16.3853 27.7801 16.257C28.1585 16.1286 28.5603 16.0845 28.9576 16.1277C29.3548 16.1709 29.7378 16.3003 30.0797 16.507C30.4217 16.7137 30.7144 16.9925 30.9373 17.3241C31.1602 17.6557 31.308 18.032 31.3703 18.4267C31.4326 18.8214 31.4079 19.2249 31.2979 19.609C31.188 19.9931 30.9954 20.3486 30.7338 20.6505C30.4721 20.9525 30.1476 21.1936 29.783 21.357Z" fill="white"/>
</svg>
