<svg width="29" height="29" viewBox="0 0 29 29" fill="none" xmlns="http://www.w3.org/2000/svg">
<path fill-rule="evenodd" clip-rule="evenodd" d="M20.4487 29C22.7167 29 24.8917 28.0991 26.4954 26.4954C28.0991 24.8917 29 22.7167 29 20.4487V8.55128C29 6.28334 28.0991 4.10829 26.4954 2.50461C24.8917 0.900936 22.7167 0 20.4487 0H8.55128C6.28334 0 4.10829 0.900936 2.50461 2.50461C0.900936 4.10829 0 6.28334 0 8.55128V20.4487C0 22.7167 0.900936 24.8917 2.50461 26.4954C4.10829 28.0991 6.28334 29 8.55128 29H20.4487ZM17.0446 5.22446C16.9604 4.97379 16.7899 4.76116 16.5635 4.62452C16.3372 4.48788 16.0696 4.43611 15.8086 4.47845C15.5476 4.5208 15.3101 4.65449 15.1385 4.85569C14.9669 5.05689 14.8724 5.3125 14.8718 5.57692V18.9615C14.8718 19.6233 14.6755 20.2703 14.3079 20.8206C13.9402 21.3708 13.4176 21.7997 12.8062 22.053C12.1947 22.3062 11.5219 22.3725 10.8728 22.2434C10.2237 22.1143 9.62752 21.7956 9.15955 21.3276C8.69159 20.8597 8.37289 20.2634 8.24378 19.6143C8.11467 18.9653 8.18093 18.2925 8.4342 17.681C8.68746 17.0696 9.11635 16.547 9.66662 16.1793C10.2169 15.8116 10.8638 15.6154 11.5256 15.6154C11.8215 15.6154 12.1052 15.4979 12.3143 15.2887C12.5235 15.0795 12.641 14.7958 12.641 14.5C12.641 14.2042 12.5235 13.9205 12.3143 13.7113C12.1052 13.5021 11.8215 13.3846 11.5256 13.3846C10.4226 13.3846 9.34439 13.7117 8.42727 14.3245C7.51015 14.9373 6.79534 15.8083 6.37324 16.8273C5.95113 17.8464 5.84069 18.9677 6.05588 20.0495C6.27106 21.1314 6.80221 22.1251 7.58216 22.905C8.36211 23.685 9.35582 24.2161 10.4376 24.4313C11.5195 24.6465 12.6408 24.536 13.6598 24.1139C14.6789 23.6918 15.5499 22.977 16.1627 22.0599C16.7755 21.1428 17.1026 20.0646 17.1026 18.9615V9.23241C18.2432 10.2913 19.8494 11.1538 21.9359 11.1538C22.2317 11.1538 22.5154 11.0363 22.7246 10.8272C22.9338 10.618 23.0513 10.3343 23.0513 10.0385C23.0513 9.74264 22.9338 9.45894 22.7246 9.24977C22.5154 9.04059 22.2317 8.92308 21.9359 8.92308C20.4904 8.92308 19.3913 8.32821 18.5764 7.55636C17.7435 6.76518 17.2409 5.8119 17.0446 5.22446Z" fill="white"/>
</svg>
