<svg width="29" height="29" viewBox="0 0 29 29" fill="none" xmlns="http://www.w3.org/2000/svg">
<path fill-rule="evenodd" clip-rule="evenodd" d="M5.27273 0C3.87431 0 2.53317 0.555518 1.54435 1.54435C0.555518 2.53317 0 3.87431 0 5.27273V23.7273C0 25.1257 0.555518 26.4668 1.54435 27.4557C2.53317 28.4445 3.87431 29 5.27273 29H23.7273C25.1257 29 26.4668 28.4445 27.4557 27.4557C28.4445 26.4668 29 25.1257 29 23.7273V5.27273C29 3.87431 28.4445 2.53317 27.4557 1.54435C26.4668 0.555518 25.1257 0 23.7273 0H5.27273ZM5.06182 8.86741L6.41295 5.27273H23.9382V17.4053L18.995 22.3485H15.4003L12.702 25.0455H10.0063V22.3485H5.06182V8.86741ZM22.1389 7.06941H8.20832V19.6528H12.2525V21.899L14.5 19.6541H18.9937L22.1389 16.5076V7.06941ZM12.6124 10.6654V15.6086H14.5896V10.6641L12.6124 10.6654ZM17.1074 15.6086V10.6641H19.0846V15.6073L17.1074 15.6086Z" fill="white"/>
</svg>
